<svg width="156" height="156" viewBox="0 0 156 156" fill="none" xmlns="http://www.w3.org/2000/svg">
<circle cx="78" cy="78" r="78" fill="white"/>
<path d="M113.423 70.4414C111.939 54.1602 97.8043 38.0845 77.8465 38.0845C58.1171 38.0845 42.0869 54.1373 42.0869 73.8438C42.0869 87.9329 50.4902 100.789 63.2321 106.498V110.151H63.1865C61.4053 110.151 59.9667 111.59 59.9667 113.371C59.9667 115.152 61.4053 116.591 63.1865 116.591H63.2321V120.358H63.1865C61.4053 120.358 59.9667 121.797 59.9667 123.578C59.9667 125.359 61.4053 126.798 63.1865 126.798H64.2825C66.429 132.187 71.6811 136 77.8237 136C83.9663 136 89.2184 132.187 91.3649 126.798H92.4838C94.2649 126.798 95.7035 125.359 95.7035 123.578C95.7035 121.797 94.2649 120.358 92.4838 120.358H92.4153V116.591H92.4838C94.2649 116.591 95.7035 115.152 95.7035 113.371C95.7035 111.59 94.2649 110.151 92.4838 110.151H92.4153V106.498C106.299 100.286 114.862 85.7864 113.423 70.4414ZM88.0766 101.314C86.8207 101.794 85.9758 102.981 85.9758 104.328V121.386C85.9758 125.884 82.3222 129.538 77.8237 129.538C73.3252 129.538 69.6716 125.884 69.6716 121.386V104.328C69.6716 102.981 68.8267 101.771 67.5708 101.314C56.1761 97.0668 48.5035 86.0147 48.5035 73.8438C48.5035 57.6767 61.6565 44.5239 77.8237 44.5239C93.42 44.5239 105.774 57.6996 107.007 71.0351C108.263 84.2565 100.476 96.7014 88.0766 101.314Z" fill="#00458F"/>
<path d="M94.1291 62.0391C92.8731 60.7603 90.8408 60.7603 89.5849 62.0162L72.7327 78.8683L66.1105 72.2462C64.8546 70.9903 62.8223 70.9903 61.5435 72.2462C60.2876 73.5022 60.2876 75.5345 61.5435 76.8132L70.4492 85.7188C71.0885 86.3582 71.9106 86.655 72.7327 86.655C73.5547 86.655 74.3768 86.3353 75.0162 85.7188L94.1291 66.606C95.385 65.3501 95.385 63.3178 94.1291 62.0391Z" fill="#00458F"/>
<path d="M33.8419 70.626H27.2197C25.4386 70.626 24 72.0646 24 73.8457C24 75.6268 25.4386 77.0654 27.2197 77.0654H33.8419C35.623 77.0654 37.0616 75.6268 37.0616 73.8457C37.0616 72.0646 35.623 70.626 33.8419 70.626Z" fill="#00458F"/>
<path d="M128.468 70.6255H121.846C120.065 70.6255 118.626 72.0641 118.626 73.8452C118.626 75.6263 120.065 77.0649 121.846 77.0649H128.468C130.249 77.0649 131.688 75.6263 131.688 73.8452C131.688 72.0641 130.249 70.6255 128.468 70.6255Z" fill="#00458F"/>
<path d="M77.8418 20C76.0607 20 74.6221 21.4386 74.6221 23.2197V29.8418C74.6221 31.6229 76.0607 33.0615 77.8418 33.0615C79.6229 33.0615 81.0615 31.6229 81.0615 29.8418V23.2197C81.0615 21.4386 79.6229 20 77.8418 20Z" fill="#00458F"/>
<path d="M49.0026 40.4375L44.3214 35.7564C43.0655 34.5005 41.0332 34.5005 39.7544 35.7564C38.4985 37.0123 38.4985 39.0446 39.7544 40.3234L44.4356 45.0045C45.7144 46.2604 47.7467 46.2604 49.0026 45.0045C50.2585 43.7486 50.2585 41.7163 49.0026 40.4375Z" fill="#00458F"/>
<path d="M115.912 35.7545C114.656 34.5214 112.624 34.5214 111.368 35.7773L106.687 40.4585C105.431 41.7144 105.431 43.7467 106.687 45.0254C107.943 46.2813 109.975 46.2813 111.254 45.0254L115.912 40.3215C117.168 39.0655 117.168 37.0332 115.912 35.7545Z" fill="#00458F"/>
</svg>
