<svg width="108" height="116" viewBox="0 0 108 116" fill="none" xmlns="http://www.w3.org/2000/svg">
<path d="M89.4235 50.4414C87.9392 34.1602 73.8043 18.0845 53.8465 18.0845C34.1171 18.0845 18.0869 34.1373 18.0869 53.8438C18.0869 67.9329 26.4902 80.7889 39.2321 86.4976V90.1511H39.1865C37.4053 90.1511 35.9667 91.5897 35.9667 93.3709C35.9667 95.152 37.4053 96.5906 39.1865 96.5906H39.2321V100.358H39.1865C37.4053 100.358 35.9667 101.797 35.9667 103.578C35.9667 105.359 37.4053 106.798 39.1865 106.798H40.2825C42.429 112.187 47.6811 116 53.8237 116C59.9663 116 65.2184 112.187 67.3649 106.798H68.4838C70.2649 106.798 71.7035 105.359 71.7035 103.578C71.7035 101.797 70.2649 100.358 68.4838 100.358H68.4153V96.5906H68.4838C70.2649 96.5906 71.7035 95.152 71.7035 93.3709C71.7035 91.5897 70.2649 90.1511 68.4838 90.1511H68.4153V86.4976C82.2989 80.2865 90.8621 65.7864 89.4235 50.4414ZM64.0766 81.3141C62.8207 81.7936 61.9758 82.981 61.9758 84.3283V101.386C61.9758 105.884 58.3222 109.538 53.8237 109.538C49.3252 109.538 45.6716 105.884 45.6716 101.386V84.3283C45.6716 82.981 44.8267 81.7708 43.5708 81.3141C32.1761 77.0668 24.5035 66.0147 24.5035 53.8438C24.5035 37.6767 37.6565 24.5239 53.8237 24.5239C69.42 24.5239 81.7737 37.6996 83.0068 51.0351C84.2628 64.2565 76.476 76.7014 64.0766 81.3141Z" fill="#00458F"/>
<path d="M70.1291 42.0391C68.8731 40.7603 66.8408 40.7603 65.5849 42.0162L48.7327 58.8683L42.1105 52.2462C40.8546 50.9903 38.8223 50.9903 37.5435 52.2462C36.2876 53.5022 36.2876 55.5345 37.5435 56.8132L46.4492 65.7188C47.0885 66.3582 47.9106 66.655 48.7327 66.655C49.5547 66.655 50.3768 66.3353 51.0162 65.7188L70.1291 46.606C71.385 45.3501 71.385 43.3178 70.1291 42.0391Z" fill="#00458F"/>
<path d="M9.84189 50.626H3.21974C1.4386 50.626 0 52.0646 0 53.8457C0 55.6268 1.4386 57.0654 3.21974 57.0654H9.84189C11.623 57.0654 13.0616 55.6268 13.0616 53.8457C13.0616 52.0646 11.623 50.626 9.84189 50.626Z" fill="#00458F"/>
<path d="M104.468 50.6255H97.8457C96.0646 50.6255 94.626 52.0641 94.626 53.8452C94.626 55.6263 96.0646 57.0649 97.8457 57.0649H104.468C106.249 57.0649 107.688 55.6263 107.688 53.8452C107.688 52.0641 106.249 50.6255 104.468 50.6255Z" fill="#00458F"/>
<path d="M53.8418 0C52.0607 0 50.6221 1.43859 50.6221 3.21971V9.8418C50.6221 11.6229 52.0607 13.0615 53.8418 13.0615C55.6229 13.0615 57.0615 11.6229 57.0615 9.8418V3.21971C57.0615 1.43859 55.6229 0 53.8418 0Z" fill="#00458F"/>
<path d="M25.0026 20.4375L20.3214 15.7564C19.0655 14.5005 17.0332 14.5005 15.7544 15.7564C14.4985 17.0123 14.4985 19.0446 15.7544 20.3234L20.4356 25.0045C21.7144 26.2604 23.7467 26.2604 25.0026 25.0045C26.2585 23.7486 26.2585 21.7163 25.0026 20.4375Z" fill="#00458F"/>
<path d="M91.9124 15.7545C90.6565 14.5214 88.6242 14.5214 87.3682 15.7773L82.6871 20.4585C81.4311 21.7144 81.4311 23.7467 82.6871 25.0254C83.943 26.2813 85.9753 26.2813 87.2541 25.0254L91.9124 20.3215C93.1683 19.0655 93.1683 17.0332 91.9124 15.7545Z" fill="#00458F"/>
</svg>
